HIERARCHY
ROOT Hips
{
	OFFSET 0.00000 0.00000 0.00000
	CHANNELS 6 Xposition Yposition Zposition Zrotation Yrotation Xrotation 
	JOINT LHipJoint
	{
		OFFSET 0 0 0
		CHANNELS 3 Zrotation Yrotation Xrotation
		JOINT LeftUpLeg
		{
			OFFSET 1.62964 -1.40469 0.78906
			CHANNELS 3 Zrotation Yrotation Xrotation
			JOINT LeftLeg
			{
				OFFSET 2.29640 -6.30932 0.00000
				CHANNELS 3 Zrotation Yrotation Xrotation
				JOINT LeftFoot
				{
					OFFSET 2.29451 -6.30412 0.00000
					CHANNELS 3 Zrotation Yrotation Xrotation
					JOINT LeftToeBase
					{
						OFFSET 0.03611 -0.09921 1.56387
						CHANNELS 3 Zrotation Yrotation Xrotation
						End Site
						{
							OFFSET 0.00000 -0.00000 0.80291
						}
					}
				}
			}
		}
	}
	JOINT RHipJoint
	{
		OFFSET 0 0 0
		CHANNELS 3 Zrotation Yrotation Xrotation
		JOINT RightUpLeg
		{
			OFFSET -1.73712 -1.40469 0.78906
			CHANNELS 3 Zrotation Yrotation Xrotation
			JOINT RightLeg
			{
				OFFSET -2.28137 -6.26801 0.00000
				CHANNELS 3 Zrotation Yrotation Xrotation
				JOINT RightFoot
				{
					OFFSET -2.28681 -6.28298 0.00000
					CHANNELS 3 Zrotation Yrotation Xrotation
					JOINT RightToeBase
					{
						OFFSET -0.15927 -0.43759 1.61103
						CHANNELS 3 Zrotation Yrotation Xrotation
						End Site
						{
							OFFSET -0.00000 -0.00000 0.84630
						}
					}
				}
			}
		}
	}
	JOINT LowerBack
	{
		OFFSET 0 0 0
		CHANNELS 3 Zrotation Yrotation Xrotation
		JOINT Spine
		{
			OFFSET -0.04227 2.04338 -0.00225
			CHANNELS 3 Zrotation Yrotation Xrotation
			JOINT Spine1
			{
				OFFSET -0.02148 2.04482 -0.04273
				CHANNELS 3 Zrotation Yrotation Xrotation
				JOINT Neck
				{
					OFFSET 0 0 0
					CHANNELS 3 Zrotation Yrotation Xrotation
					JOINT Neck1
					{
						OFFSET 0.09180 1.44629 0.19359
						CHANNELS 3 Zrotation Yrotation Xrotation
						JOINT Head
						{
							OFFSET 0.00887 1.40645 0.14750
							CHANNELS 3 Zrotation Yrotation Xrotation
							End Site
							{
								OFFSET -0.00669 1.50671 0.03707
							}
						}
					}
				}
				JOINT LeftShoulder
				{
					OFFSET 0 0 0
					CHANNELS 3 Zrotation Yrotation Xrotation
					JOINT LeftArm
					{
						OFFSET 2.17674 1.86763 -0.06520
						CHANNELS 3 Zrotation Yrotation Xrotation
						JOINT LeftForeArm
						{
							OFFSET 4.65776 -0.00000 0.00000
							CHANNELS 3 Zrotation Yrotation Xrotation
							JOINT LeftHand
							{
								OFFSET 3.55539 -0.00000 0.00000
								CHANNELS 3 Zrotation Yrotation Xrotation
								JOINT LeftFingerBase
								{
									OFFSET 0 0 0
									CHANNELS 3 Zrotation Yrotation Xrotation
									JOINT LeftHandIndex1
									{
										OFFSET 0.70726 -0.00000 0.00000
										CHANNELS 3 Zrotation Yrotation Xrotation
										End Site
										{
											OFFSET 0.57022 -0.00000 0.00000
										}
									}
								}
								JOINT LThumb
								{
									OFFSET 0 0 0
									CHANNELS 3 Zrotation Yrotation Xrotation
									End Site
									{
										OFFSET 0.57892 -0.00000 0.57892
									}
								}
							}
						}
					}
				}
				JOINT RightShoulder
				{
					OFFSET 0 0 0
					CHANNELS 3 Zrotation Yrotation Xrotation
					JOINT RightArm
					{
						OFFSET -2.80694 1.55459 -0.32496
						CHANNELS 3 Zrotation Yrotation Xrotation
						JOINT RightForeArm
						{
							OFFSET -4.71925 -0.00000 -0.00000
							CHANNELS 3 Zrotation Yrotation Xrotation
							JOINT RightHand
							{
								OFFSET -3.56990 -0.00000 0.00000
								CHANNELS 3 Zrotation Yrotation Xrotation
								JOINT RightFingerBase
								{
									OFFSET 0 0 0
									CHANNELS 3 Zrotation Yrotation Xrotation
									JOINT RightHandIndex1
									{
										OFFSET -0.50776 -0.00000 0.00000
										CHANNELS 3 Zrotation Yrotation Xrotation
										End Site
										{
											OFFSET -0.40937 -0.00000 0.00000
										}
									}
								}
								JOINT RThumb
								{
									OFFSET 0 0 0
									CHANNELS 3 Zrotation Yrotation Xrotation
									End Site
									{
										OFFSET -0.41562 -0.00000 0.41562
									}
								}
							}
						}
					}
				}
			}
		}
	}
}
MOTION
Frames: 13
Frame Time: .0083333
-1.2637 19.6442 20.6127 0 0 0 0 0 0 -21 0 0 0 0 0 0 0 0 0 0 0 0 0 0 21 0 0 0 0 0 0 0 0 0 0 0 0 0 0 0 0 0 0 0 0 0 0 -16 0 0 21 0 0 11 0 0 0 -8 0 0 0 0 0 0 0 0 0 0 0 0 0 0 0 0 0 0 0 0 8 0 0 0 0 0 0 0 0 0 0 0 0 0 0 0 0 0
-1.2637 19.6442 20.6127 178.8360 -2.0452 -152.3500 0.0000 0.0000 0.0000 -21.5886 -14.7099 -21.0630 0.1711 2.6645 7.3460 0.0975 -4.1602 -5.8612 0.0010 -0.1991 -0.5471 0.0000 0.0000 0.0000 18.3706 14.9934 -23.1774 -0.2833 -3.4234 9.4597 -1.1357 0.9935 -19.8423 -1.5969 7.9704 -22.6242 -6.5660 -2.3708 -28.6319 -0.0185 -1.7045 -1.7795 2.8395 -1.4461 13.3028 -0.2862 -4.9101 -1.4912 2.9791 -6.5929 7.5985 0.8129 -3.1135 2.7941 0.0000 -0.0000 0.0000 -83.6552 0.5322 24.5715 11.0755 -18.4038 -1.7997 -0.0000 -0.0000 0.1039 20.8519 -10.4515 -3.9527 -7.1250 0.0000 -0.0000 -4.3795 18.8318 2.7394 0.0000 -0.0000 0.0000 91.9876 -7.0110 8.6538 -18.6843 29.0245 -4.8767 0.0000 -0.0000 -4.9024 -5.3354 -57.2586 4.4915 7.1250 -0.0000 -0.0000 84.3220 -73.9981 -67.5203
-1.2637 19.6443 20.6123 178.7920 -2.0385 -152.3480 0.0000 0.0000 0.0000 -21.6474 -14.7155 -21.0640 0.1721 2.6723 7.3677 0.1097 -4.2456 -6.1746 0.1018 -2.0574 -5.6643 0.0000 0.0000 0.0000 18.3078 15.0004 -23.1840 -0.2836 -3.4247 9.4635 -1.1492 1.0511 -19.9455 -1.5121 7.7659 -22.0052 -6.6019 -2.3547 -28.6494 -0.0423 -1.6606 -1.7414 2.8493 -1.4276 13.3498 -0.0881 -4.9711 -1.6122 2.7492 -6.6738 7.5573 0.7007 -3.1581 2.7859 0.0000 0.0000 0.0000 -83.5840 0.4331 24.1417 11.0987 -18.4394 -1.8070 -0.0000 -0.0000 1.5523 20.4621 -8.7953 -3.2654 -7.1250 0.0000 -0.0000 -4.6320 20.6165 2.7132 0.0000 0.0000 0.0000 92.0592 -6.9852 8.4908 -18.8371 29.2158 -4.9511 0.0000 -0.0000 -4.6763 -4.5324 -57.7615 3.8359 7.1250 -0.0000 -0.0000 86.1725 -73.7382 -69.0962
-1.2635 19.6446 20.6117 178.8050 -2.0569 -152.3560 0.0000 0.0000 0.0000 -21.6293 -14.7184 -21.0387 0.1708 2.6621 7.3393 0.1383 -4.4973 -6.8660 1.1201 -6.7231 -18.8975 0.0000 0.0000 0.0000 18.3274 14.9693 -23.1903 -0.2836 -3.4249 9.4641 -1.1598 1.2634 -19.9801 -1.3246 7.2888 -20.5739 -6.5795 -2.3378 -28.6358 -0.0480 -1.6454 -1.7417 2.8373 -1.4187 13.3412 -0.1635 -4.9504 -1.8774 2.8401 -6.6543 7.8178 0.7336 -3.1388 2.9300 0.0000 0.0000 0.0000 -83.5173 0.5037 24.2217 11.1785 -18.5614 -1.8323 -0.0000 -0.0000 1.8786 20.4070 -9.3778 -3.4691 -7.1250 0.0000 -0.0000 -4.6778 20.0028 2.8048 0.0000 0.0000 0.0000 92.0568 -6.9927 8.5672 -18.9078 29.3040 -4.9856 0.0000 -0.0000 -4.6967 -4.4136 -57.6426 3.7304 7.1250 -0.0000 -0.0000 85.7780 -73.6940 -68.6436
-1.2621 19.6450 20.6096 178.8330 -2.0977 -152.4020 0.0000 0.0000 0.0000 -21.5969 -14.6714 -20.9672 0.1676 2.6372 7.2703 0.1039 -4.2789 -6.0486 0.0999 -2.0384 -5.6118 0.0000 0.0000 0.0000 18.4229 14.8594 -23.1275 -0.2822 -3.4167 9.4411 -1.1480 1.2255 -19.8858 -1.3593 7.3797 -20.8453 -6.5620 -2.3262 -28.5672 -0.0439 -1.6425 -1.7620 2.8357 -1.4149 13.2864 -0.1985 -5.0761 -2.0196 2.8328 -6.8192 8.2377 0.7236 -3.2078 3.1040 -0.0000 0.0000 0.0000 -83.6364 0.5003 24.2407 11.0744 -18.4021 -1.7993 -0.0000 -0.0000 0.9644 21.1821 -10.5740 -4.0675 -7.1250 0.0000 -0.0000 -4.1488 18.6756 2.6087 -0.0000 0.0000 0.0000 92.0312 -7.0207 8.7479 -18.9137 29.3113 -4.9885 0.0000 -0.0000 -4.9041 -5.0074 -57.2443 4.2143 7.1250 -0.0000 -0.0000 84.3187 -73.8831 -67.3844
-1.2627 19.6432 20.6070 178.8390 -2.0858 -152.3480 0.0000 0.0000 0.0000 -21.5745 -14.7314 -21.0037 0.1669 2.6315 7.2546 0.0955 -4.1518 -5.8123 0.0013 -0.2357 -0.6477 0.0000 0.0000 0.0000 18.4028 14.8831 -23.1636 -0.2809 -3.4086 9.4186 -1.1392 1.1149 -19.8391 -1.4157 7.5249 -21.2801 -6.5317 -2.2849 -28.6361 -0.0710 -1.5960 -1.7803 2.8055 -1.3937 13.2906 -0.4381 -4.8275 -1.8755 3.2676 -6.5051 7.7010 0.9237 -3.0600 2.9169 0.0000 -0.0000 0.0000 -83.6348 0.4277 24.3656 10.9995 -18.2875 -1.7758 -0.0000 -0.0000 0.5470 21.5171 -10.9354 -4.2773 -7.1250 0.0000 -0.0000 -3.9221 18.2631 2.5013 0.0000 -0.0000 0.0000 92.0387 -7.0050 8.7668 -18.8838 29.2740 -4.9739 0.0000 -0.0000 -5.0365 -5.2285 -57.0820 4.3927 7.1250 -0.0000 -0.0000 83.7196 -73.9511 -66.8603
-1.2613 19.6419 20.6034 178.7750 -2.0605 -152.3230 0.0000 0.0000 0.0000 -21.6544 -14.7300 -21.0097 0.1675 2.6363 7.2676 0.0954 -4.2218 -5.8279 0.0002 0.0796 0.2187 0.0000 0.0000 0.0000 18.2959 14.9545 -23.1493 -0.2790 -3.3971 9.3865 -1.1442 1.1276 -19.8798 -1.3529 7.3630 -20.7953 -6.5844 -2.2781 -28.6988 -0.1097 -1.5628 -1.7738 2.8027 -1.3827 13.3222 -0.0716 -4.6906 -1.4519 2.9118 -6.7037 7.2646 0.7484 -3.3370 2.6652 -0.0000 -0.0000 0.0000 -83.5674 0.3732 24.3627 10.9914 -18.2751 -1.7732 -0.0000 -0.0000 0.8310 21.4429 -10.7766 -4.2002 -7.1250 0.0000 -0.0000 -3.9698 18.4386 2.5165 -0.0000 -0.0000 0.0000 92.0200 -6.8906 8.7411 -18.7312 29.0833 -4.8995 0.0000 -0.0000 -5.0534 -5.0670 -56.5300 4.2301 7.1250 -0.0000 -0.0000 81.8299 -73.8514 -64.8581
-1.2585 19.6418 20.5997 178.7090 -2.0600 -152.3830 0.0000 0.0000 0.0000 -21.7498 -14.6743 -20.9146 0.1667 2.6302 7.2510 0.0942 -4.3726 -5.8443 0.0007 0.1742 0.4785 0.0000 0.0000 0.0000 18.2543 14.8982 -23.0415 -0.2745 -3.3701 9.3110 -1.1345 1.1411 -19.7896 -1.4246 7.5478 -21.3486 -6.6843 -2.2972 -28.6600 -0.1174 -1.5530 -1.7554 2.8531 -1.3828 13.3255 -0.1355 -4.6969 -1.5837 2.9316 -6.7250 7.4509 0.7591 -3.3472 2.7559 -0.0000 -0.0000 0.0000 -83.6024 0.3477 24.4293 10.9438 -18.2020 -1.7583 -0.0000 -0.0000 0.4418 21.6272 -10.9683 -4.3140 -7.1250 0.0000 -0.0000 -3.8455 18.2187 2.4560 -0.0000 -0.0000 0.0000 91.9760 -6.7832 8.7527 -18.5803 28.8938 -4.8264 0.0000 -0.0000 -5.0982 -5.2909 -55.9088 4.3855 7.1250 -0.0000 -0.0000 79.6321 -73.8602 -62.7007
-1.2590 19.6434 20.5956 178.7320 -2.0186 -152.4910 0.0000 0.0000 0.0000 -21.7510 -14.6479 -20.7560 0.1642 2.6104 7.1958 0.0966 -4.2918 -5.8783 0.0000 -0.0057 -0.0157 0.0000 0.0000 0.0000 18.3072 14.8234 -22.9021 -0.2711 -3.3490 9.2520 -1.1242 1.2107 -19.6783 -1.4817 7.6909 -21.7792 -6.6811 -2.2660 -28.5817 -0.1042 -1.5147 -1.7422 2.8829 -1.3630 13.3018 -0.2426 -4.6944 -1.7043 3.0008 -6.7375 7.6393 0.7934 -3.3533 2.8495 0.0000 -0.0000 0.0000 -83.6502 0.3455 24.5901 10.9032 -18.1397 -1.7457 -0.0000 -0.0000 0.0304 21.9372 -10.8712 -4.3438 -7.1250 0.0000 -0.0000 -3.6240 18.2961 2.3078 0.0000 -0.0000 0.0000 91.9748 -6.8440 8.6941 -18.5999 28.9185 -4.8359 0.0000 -0.0000 -4.9142 -5.1840 -55.6926 4.2858 7.1250 -0.0000 -0.0000 78.9174 -73.7920 -61.9231
-1.2580 19.6435 20.6007 178.7450 -2.1222 -152.3840 0.0000 0.0000 0.0000 -21.6560 -14.7601 -20.9493 0.1683 2.6425 7.2851 0.0962 -4.1695 -5.8337 0.0000 -0.0234 -0.0643 0.0000 0.0000 0.0000 18.2877 14.9017 -23.0795 -0.2785 -3.3946 9.3793 -1.1360 1.1101 -19.8120 -1.4387 7.5834 -21.4556 -6.6826 -2.2881 -28.6038 -0.0717 -1.5549 -1.7897 2.9028 -1.3831 13.2625 -0.2010 -4.7213 -1.6381 2.9347 -6.7611 7.5355 0.7675 -3.3660 2.7979 0.0000 -0.0000 0.0000 -83.6732 0.3069 24.6286 10.8776 -18.1004 -1.7377 -0.0000 -0.0000 0.0294 22.1584 -10.6676 -4.3111 -7.1250 0.0000 -0.0000 -3.4615 18.4954 2.1886 0.0000 -0.0000 0.0000 91.9780 -6.9473 8.8102 -18.7218 29.0716 -4.8950 0.0000 -0.0000 -4.9026 -5.2981 -56.3680 4.4151 7.1250 -0.0000 -0.0000 81.2194 -73.9169 -64.3290
-1.2575 19.6423 20.5968 178.7900 -2.1097 -152.3990 0.0000 0.0000 0.0000 -21.6218 -14.6762 -20.9337 0.1671 2.6332 7.2593 0.0951 -4.1653 -5.8050 0.0000 0.0312 0.0856 0.0000 0.0000 0.0000 18.3652 14.9300 -23.0597 -0.2816 -3.4133 9.4315 -1.1454 1.1108 -19.8950 -1.4006 7.4866 -21.1651 -6.6591 -2.2800 -28.6652 -0.0507 -1.5467 -1.7661 2.9142 -1.3794 13.3174 -0.1105 -4.7380 -1.4512 2.8621 -6.7577 7.2350 0.7380 -3.3652 2.6554 0.0000 0.0000 0.0000 -83.6742 0.3042 24.6463 10.8883 -18.1169 -1.7410 -0.0000 0.0000 -0.0702 22.1501 -10.8019 -4.3628 -7.1250 0.0000 -0.0000 -3.4717 18.3522 2.2061 0.0000 0.0000 0.0000 91.9204 -6.9062 8.9653 -18.6848 29.0251 -4.8770 0.0000 -0.0000 -4.9555 -5.3081 -56.5706 4.4338 7.1250 -0.0000 -0.0000 81.9222 -73.9403 -65.0527
-1.2560 19.6423 20.5982 178.7250 -2.1828 -152.3770 0.0000 0.0000 0.0000 -21.6675 -14.7094 -21.0156 0.1725 2.6753 7.3760 0.0912 -4.3174 -5.7559 0.0015 0.2536 0.6969 0.0000 0.0000 0.0000 18.2941 14.9395 -23.0607 -0.2793 -3.3994 9.3927 -1.1504 1.0586 -19.9541 -1.3916 7.4635 -21.0960 -6.7262 -2.3403 -28.6414 -0.0524 -1.6087 -1.7832 2.9255 -1.4112 13.2937 -0.0642 -4.7244 -1.3207 2.8438 -6.7272 7.0611 0.7309 -3.3508 2.5701 -0.0000 -0.0000 0.0000 -83.6318 0.3848 24.7526 10.9503 -18.2121 -1.7604 -0.0000 0.0000 -0.3273 22.1304 -10.8298 -4.3695 -7.1250 0.0000 -0.0000 -3.4866 18.3240 2.2177 -0.0000 -0.0000 0.0000 91.9134 -6.8876 9.0148 -18.6555 28.9883 -4.8627 0.0000 -0.0000 -4.9274 -5.3554 -56.7726 4.4837 7.1250 -0.0000 -0.0000 82.6175 -73.9741 -65.7840
-1.2558 19.6447 20.5968 178.7420 -2.2027 -152.4370 0.0000 0.0000 0.0000 -21.6486 -14.7052 -20.9850 0.1771 2.7110 7.4753 0.0925 -4.3690 -5.8030 0.0055 0.4787 1.3153 0.0000 0.0000 0.0000 18.3661 14.7979 -23.0488 -0.2824 -3.4178 9.4443 -1.1610 1.2105 -20.0049 -1.4368 7.5784 -21.4406 -6.6887 -2.3245 -28.5772 -0.0678 -1.5974 -1.7678 2.8950 -1.4016 13.2800 -0.0250 -4.7542 -1.2744 2.8299 -6.7650 7.0171 0.7206 -3.3697 2.5454 -0.0000 0.0000 0.0000 -83.6063 0.3970 24.6979 10.9739 -18.2482 -1.7677 -0.0000 0.0000 -0.3302 22.0909 -10.7441 -4.3270 -7.1250 0.0000 -0.0000 -3.5116 18.4191 2.2263 -0.0000 0.0000 0.0000 91.9614 -6.9035 8.9970 -18.6829 29.0228 -4.8761 0.0000 -0.0000 -4.9036 -5.3218 -56.9211 4.4631 7.1250 -0.0000 -0.0000 83.1424 -73.9734 -66.3074
